<?xml version="1.0" standalone="no"?><!DOCTYPE svg PUBLIC "-//W3C//DTD SVG 1.1//EN" "http://www.w3.org/Graphics/SVG/1.1/DTD/svg11.dtd"><svg t="1745479550471" class="icon" viewBox="0 0 1024 1024" version="1.1" xmlns="http://www.w3.org/2000/svg" p-id="3674" xmlns:xlink="http://www.w3.org/1999/xlink" width="200" height="200"><path d="M706.28 692.224c105.24-65.536 178.084-184.32 178.084-317.44C884.364 167.936 716.404 0 512 0 307.596 0 139.636 167.936 139.636 374.784c0 135.168 70.82 251.904 178.083 317.44l-151.784 194.56c-10.1 18.432-12.126 40.96-12.126 51.2 0 57.344 30.348 86.016 74.869 86.016h566.644c44.52 0 74.869-28.672 74.869-86.016 0-20.48-4.05-36.864-12.126-51.2l-151.784-194.56z m-497.826-317.44C208.454 206.848 344.04 69.632 512 69.632s303.546 137.216 303.546 305.152S679.96 679.936 512 679.936 208.454 542.72 208.454 374.784z" fill="#8A8A8A" p-id="3675"></path><path d="M642.607 721.455c-42.194 16.616-86.412 26.996-132.608 26.996-46.22 0-92.44-10.38-132.608-26.996L234.729 912.617c-2.002 6.237-2.002 8.308-2.002 14.568 0 14.523 10.054 26.997 26.112 26.997h506.322c16.058 0 26.112-14.546 26.112-26.997 0-6.26 0-10.402-2.002-14.568L642.607 721.455z" fill="#FE8119" p-id="3676"></path></svg>